<?xml version="1.0" standalone="no"?>
<!DOCTYPE svg PUBLIC "-//W3C//DTD SVG 20010904//EN"
 "http://www.w3.org/TR/2001/REC-SVG-20010904/DTD/svg10.dtd">
<svg version="1.0" xmlns="http://www.w3.org/2000/svg"
 width="750.000000pt" height="500.000000pt" viewBox="0 0 750.000000 500.000000"
 preserveAspectRatio="xMidYMid meet">

<g transform="translate(0.000000,500.000000) scale(0.100000,-0.100000)"
fill="#000000" stroke="none">
<path d="M2849 3411 c-160 -30 -291 -85 -386 -163 -68 -57 -109 -109 -147
-188 -30 -62 -31 -70 -31 -195 0 -149 13 -200 75 -293 45 -66 108 -117 206
-165 82 -41 158 -64 361 -111 165 -38 212 -57 258 -106 26 -27 30 -38 30 -90
0 -74 -21 -105 -98 -144 -49 -25 -72 -29 -168 -34 -69 -3 -138 0 -182 8 -137
24 -297 94 -413 182 -86 65 -84 69 -84 -174 l0 -213 63 -23 c213 -80 350 -105
562 -106 228 0 375 33 521 119 69 41 169 145 203 213 98 194 69 447 -65 578
-100 97 -205 142 -496 213 -108 27 -216 59 -239 72 -115 63 -117 188 -5 254
140 82 360 69 572 -34 57 -28 106 -51 109 -51 3 0 5 86 5 190 l0 190 -27 11
c-16 6 -80 22 -143 35 -126 27 -396 40 -481 25z"/>
<path d="M3680 3014 l0 -376 46 -62 c87 -114 124 -232 124 -397 0 -122 -22
-224 -69 -319 -34 -67 -108 -168 -146 -198 -14 -11 -25 -25 -25 -30 0 -14 527
-15 745 -2 148 9 266 26 340 49 115 35 239 115 327 210 201 218 277 521 212
839 -51 251 -220 467 -445 571 -153 71 -327 91 -806 91 l-303 0 0 -376z m789
21 c131 -40 240 -144 291 -276 44 -118 51 -335 14 -459 -41 -139 -130 -246
-251 -303 -66 -31 -72 -32 -235 -35 l-168 -4 0 544 c0 300 3 548 8 553 13 13
283 -2 341 -20z"/>
</g>
</svg>
